<svg width="24" height="24" viewBox="0 0 24 24" fill="none" xmlns="http://www.w3.org/2000/svg">
<path d="M17.9999 11.5C17.9999 8.46243 15.5375 5.99999 12.4999 5.99999C12.2238 5.99999 11.9999 6.22385 11.9999 6.49999V17.5C11.9999 17.7761 12.2238 18 12.4999 18C15.5375 18 17.9999 15.5376 17.9999 12.5V11.5Z" fill="currentColor"/>
<path fill-rule="evenodd" clip-rule="evenodd" d="M11.9999 2.39999C6.69797 2.39999 2.3999 6.69806 2.3999 12C2.3999 17.3019 6.69797 21.6 11.9999 21.6C17.3018 21.6 21.5999 17.3019 21.5999 12C21.5999 6.69806 17.3018 2.39999 11.9999 2.39999ZM12.4999 5.99999C15.5375 5.99999 17.9999 8.46243 17.9999 11.5V12.5C17.9999 15.5376 15.5375 18 12.4999 18C12.2238 18 11.9999 17.7761 11.9999 17.5V6.49999C11.9999 6.22385 12.2238 5.99999 12.4999 5.99999Z" stroke="currentColor"/>
<path d="M17.9999 11.5C17.9999 8.46243 15.5375 5.99999 12.4999 5.99999C12.2238 5.99999 11.9999 6.22385 11.9999 6.49999V17.5C11.9999 17.7761 12.2238 18 12.4999 18C15.5375 18 17.9999 15.5376 17.9999 12.5V11.5Z" stroke="currentColor"/>
</svg>
