<svg width="24" height="24" viewBox="0 0 24 24" fill="none" xmlns="http://www.w3.org/2000/svg">
<path opacity="0.5" d="M20.2747 20.4973C19.2732 21.5 17.6612 21.5 14.4373 21.5L9.11529 21.5C5.89139 21.5 4.27944 21.5 3.2779 20.4974C2.27637 19.4947 2.27637 17.8808 2.27637 14.6532V9.34678C2.27637 6.11916 2.27637 4.50535 3.2779 3.50266C4.27944 2.49996 5.89139 2.49996 9.11529 2.49996L14.4373 2.49995C17.6612 2.49995 19.2732 2.49995 20.2747 3.50265C20.7844 4.01286 21.0347 4.68132 21.1576 5.64011" stroke="currentColor" stroke-linecap="round"/>
<path d="M12.7129 11.5888V14.3229C12.7129 15.9859 12.7129 16.8174 13.2289 17.3341C13.745 17.8507 14.5755 17.8507 16.2366 17.8507H16.2366L18.9787 17.8507C20.6398 17.8507 21.4704 17.8507 21.9864 17.3341C22.5024 16.8174 22.5024 15.9859 22.5024 14.3229V11.5888C22.5024 9.92579 22.5024 9.09429 21.9864 8.57766C21.4704 8.06103 20.6398 8.06103 18.9787 8.06103L16.2366 8.06104C14.5755 8.06104 13.745 8.06104 13.2289 8.57767C12.7129 9.0943 12.7129 9.9258 12.7129 11.5888Z" stroke="currentColor" stroke-linecap="round"/>
<path d="M15.1938 10.6688H20.0215" stroke="currentColor" stroke-linecap="round"/>
<path d="M15.1938 12.9559H20.0215" stroke="currentColor" stroke-linecap="round"/>
<path d="M15.1938 15.2429H20.0215" stroke="currentColor" stroke-linecap="round"/>
</svg>
