<svg width="24" height="24" viewBox="0 0 24 24" fill="none" xmlns="http://www.w3.org/2000/svg">
<mask id="path-1-inside-1_666_6019" fill="white">
<path d="M3 4C3 3.44772 3.44772 3 4 3H10C10.5523 3 11 3.44772 11 4V10C11 10.5523 10.5523 11 10 11H4C3.44772 11 3 10.5523 3 10V4Z"/>
</mask>
<path d="M4 3V4H10V3V2H4V3ZM11 4H10V10H11H12V4H11ZM10 11V10H4V11V12H10V11ZM3 10H4V4H3H2V10H3ZM4 11V10V10H3H2C2 11.1046 2.89543 12 4 12V11ZM11 10H10V11V12C11.1046 12 12 11.1046 12 10H11ZM10 3V4V4H11H12C12 2.89543 11.1046 2 10 2V3ZM4 3V2C2.89543 2 2 2.89543 2 4H3H4V4V3Z" fill="#979797" mask="url(#path-1-inside-1_666_6019)"/>
<mask id="path-3-inside-2_666_6019" fill="white">
<path d="M3 14C3 13.4477 3.44772 13 4 13H10C10.5523 13 11 13.4477 11 14V20C11 20.5523 10.5523 21 10 21H4C3.44772 21 3 20.5523 3 20V14Z"/>
</mask>
<path d="M4 13V14H10V13V12H4V13ZM11 14H10V20H11H12V14H11ZM10 21V20H4V21V22H10V21ZM3 20H4V14H3H2V20H3ZM4 21V20V20H3H2C2 21.1046 2.89543 22 4 22V21ZM11 20H10V21V22C11.1046 22 12 21.1046 12 20H11ZM10 13V14V14H11H12C12 12.8954 11.1046 12 10 12V13ZM4 13V12C2.89543 12 2 12.8954 2 14H3H4V14V13Z" fill="#979797" mask="url(#path-3-inside-2_666_6019)"/>
<mask id="path-5-inside-3_666_6019" fill="white">
<path d="M13 4C13 3.44772 13.4477 3 14 3H20C20.5523 3 21 3.44772 21 4V10C21 10.5523 20.5523 11 20 11H14C13.4477 11 13 10.5523 13 10V4Z"/>
</mask>
<path d="M14 3V4H20V3V2H14V3ZM21 4H20V10H21H22V4H21ZM20 11V10H14V11V12H20V11ZM13 10H14V4H13H12V10H13ZM14 11V10V10H13H12C12 11.1046 12.8954 12 14 12V11ZM21 10H20V11V12C21.1046 12 22 11.1046 22 10H21ZM20 3V4V4H21H22C22 2.89543 21.1046 2 20 2V3ZM14 3V2C12.8954 2 12 2.89543 12 4H13H14V4V3Z" fill="#979797" mask="url(#path-5-inside-3_666_6019)"/>
<mask id="path-7-inside-4_666_6019" fill="white">
<path d="M13 14C13 13.4477 13.4477 13 14 13H20C20.5523 13 21 13.4477 21 14V20C21 20.5523 20.5523 21 20 21H14C13.4477 21 13 20.5523 13 20V14Z"/>
</mask>
<path d="M14 13V14H20V13V12H14V13ZM21 14H20V20H21H22V14H21ZM20 21V20H14V21V22H20V21ZM13 20H14V14H13H12V20H13ZM14 21V20V20H13H12C12 21.1046 12.8954 22 14 22V21ZM21 20H20V21V22C21.1046 22 22 21.1046 22 20H21ZM20 13V14V14H21H22C22 12.8954 21.1046 12 20 12V13ZM14 13V12C12.8954 12 12 12.8954 12 14H13H14V14V13Z" fill="#979797" mask="url(#path-7-inside-4_666_6019)"/>
</svg>
